<svg width="170" height="90" viewBox="0 0 170 90" fill="none" xmlns="http://www.w3.org/2000/svg">
<rect x="0.5" y="0.5" width="169" height="89" rx="3.5" stroke="#AFB1B8"/>
<path d="M86.5533 42.4879C86.135 41.8779 85.9349 41.1571 85.9824 40.4315V37.45C85.9824 36.536 86.1717 35.8414 86.5501 35.3662C86.9285 34.8911 87.5784 34.6545 88.4999 34.6565C89.3658 34.6565 89.9804 34.8587 90.3439 35.2631C90.7403 35.7791 90.9332 36.4101 90.8891 37.0466V37.7472H89.3401V37.0375C89.3456 36.8052 89.3306 36.5728 89.2952 36.3429C89.273 36.1857 89.1949 36.0402 89.0739 35.9304C88.9149 35.812 88.7145 35.7546 88.5127 35.7696C88.3005 35.7547 88.0901 35.8153 87.9226 35.9395C87.7877 36.0612 87.6978 36.2207 87.6661 36.3945C87.6217 36.6378 87.6013 36.8846 87.6052 37.1315V40.7499C87.5807 41.099 87.6491 41.4483 87.804 41.766C87.881 41.8735 87.988 41.9587 88.1131 42.0123C88.2382 42.0658 88.3765 42.0855 88.5127 42.0693C88.7111 42.0848 88.9081 42.026 89.0611 41.9055C89.1873 41.7871 89.2685 41.6324 89.292 41.4657C89.3282 41.2257 89.3443 40.9833 89.3401 40.7408V40.0068H90.8891V40.6771C90.9325 41.3406 90.7444 41.9991 90.3535 42.5516C89.9975 42.9944 89.3914 43.2158 88.4999 43.2158C87.6084 43.2158 86.9349 42.9792 86.5533 42.4879Z" fill="#AFB1B8"/>
<path d="M93.0029 42.5182C92.6116 42.0542 92.416 41.3778 92.416 40.483V37.3468C92.416 36.4612 92.6116 35.7909 93.0029 35.3359C93.3941 34.881 94.0483 34.6545 94.9655 34.6565C95.8762 34.6565 96.5272 34.883 96.9185 35.3359C97.3097 35.7909 97.5085 36.4612 97.5085 37.3468V40.483C97.5085 41.3687 97.3097 42.0481 96.9121 42.5152C96.5144 42.9823 95.8666 43.2158 94.9655 43.2158C94.0644 43.2158 93.3973 42.9792 93.0029 42.5182ZM95.687 41.766C95.8272 41.4753 95.891 41.1569 95.873 40.8379V36.998C95.891 36.6852 95.8283 36.3729 95.6902 36.0881C95.6117 35.9784 95.502 35.8917 95.3739 35.8381C95.2457 35.7845 95.1042 35.766 94.9655 35.7848C94.8263 35.7665 94.6845 35.7851 94.556 35.8387C94.4274 35.8923 94.3171 35.9786 94.2375 36.0881C94.0965 36.3721 94.0326 36.6848 94.0515 36.998V40.8561C94.032 41.1752 94.0959 41.494 94.2375 41.7842C94.3278 41.882 94.4392 41.9605 94.5642 42.0142C94.6892 42.0679 94.825 42.0957 94.9623 42.0957C95.0996 42.0957 95.2353 42.0679 95.3603 42.0142C95.4853 41.9605 95.5967 41.882 95.687 41.7842V41.766Z" fill="#AFB1B8"/>
<path d="M99.3714 34.748H101.039L102.293 40.5344L103.576 34.748H105.198L105.362 43.1001H104.163L104.034 37.2955L102.796 43.1001H101.834L100.552 37.2743L100.433 43.1001H99.2207L99.3714 34.748Z" fill="#AFB1B8"/>
<path d="M107.232 34.748H109.829C111.326 34.748 112.074 35.5386 112.074 37.1196C112.074 38.6339 111.286 39.3901 109.711 39.3881H108.826V43.1001H107.222L107.232 34.748ZM109.451 38.3175C109.609 38.3365 109.77 38.3228 109.923 38.2772C110.075 38.2317 110.215 38.1554 110.333 38.0537C110.517 37.7716 110.598 37.4403 110.564 37.1105C110.572 36.8557 110.546 36.601 110.487 36.3523C110.464 36.2693 110.424 36.1914 110.369 36.1232C110.314 36.055 110.245 35.9978 110.166 35.9551C109.944 35.8541 109.698 35.8082 109.451 35.8216H108.829V38.3175H109.451Z" fill="#AFB1B8"/>
<path d="M114.387 34.748H116.109L117.876 43.1001H116.381L116.032 41.1743H114.496L114.136 43.1001H112.62L114.387 34.748ZM115.859 40.2069L115.259 36.7011L114.659 40.2069H115.859Z" fill="#AFB1B8"/>
<path d="M119.303 34.748H120.425L122.574 39.5124V34.748H123.905V43.1001H122.837L120.675 38.1265V43.1001H119.3L119.303 34.748Z" fill="#AFB1B8"/>
<path d="M127.022 39.9155L125.235 34.7595H126.739L127.83 38.0715L128.853 34.7595H130.325L128.561 39.9155V43.1001H127.022V39.9155Z" fill="#AFB1B8"/>
<path d="M89.0292 46.7522V47.1889H87.7207V50.5828H87.1723V47.1889H85.8574V46.7522H89.0292Z" fill="#AFB1B8"/>
<path d="M93.1309 50.583H92.7075C92.6645 50.5856 92.6221 50.5726 92.5889 50.5466C92.5569 50.5244 92.5324 50.4938 92.5183 50.4587L92.1399 49.5489H90.3248L89.9464 50.4587C89.9356 50.4967 89.9159 50.532 89.8887 50.5618C89.8551 50.5872 89.8129 50.6001 89.77 50.5982H89.3467L90.9501 46.7678H91.5082L93.1309 50.583ZM90.4755 49.1607H91.9892L91.3478 47.6018C91.3005 47.4839 91.2609 47.3634 91.2291 47.2409C91.2067 47.3137 91.1875 47.3835 91.1682 47.4441L91.1105 47.6049L90.4755 49.1607Z" fill="#AFB1B8"/>
<path d="M95.8953 50.2068C95.9957 50.2118 96.0963 50.2118 96.1967 50.2068C96.2834 50.1984 96.3693 50.1831 96.4533 50.1613C96.5319 50.1431 96.609 50.1198 96.6842 50.0915C96.7547 50.0642 96.8253 50.0309 96.8991 49.9975V49.136H96.2577C96.2418 49.1369 96.2259 49.1346 96.211 49.1294C96.1961 49.1242 96.1825 49.1161 96.1711 49.1057C96.1606 49.0971 96.1522 49.0863 96.1467 49.0743C96.1411 49.0622 96.1385 49.0491 96.139 49.0359V48.7417H97.3833V50.2098C97.2817 50.2786 97.1745 50.3394 97.0626 50.3918C96.9483 50.4452 96.8291 50.4888 96.7066 50.5223C96.5755 50.5588 96.4414 50.5851 96.3058 50.6011C96.1503 50.6175 95.994 50.6256 95.8376 50.6254C95.561 50.6276 95.2866 50.5792 95.0294 50.4828C94.7893 50.3915 94.5712 50.2553 94.388 50.0824C94.2095 49.9078 94.069 49.7016 93.9744 49.4758C93.8733 49.2218 93.8233 48.9523 93.8268 48.681C93.8235 48.408 93.8724 48.1367 93.9712 47.8802C94.0634 47.6532 94.2042 47.4466 94.3848 47.2735C94.5678 47.1012 94.7861 46.966 95.0262 46.8761C95.3008 46.7784 95.5923 46.7301 95.8857 46.7336C96.035 46.7334 96.184 46.7446 96.3314 46.7669C96.4618 46.787 96.5896 46.8196 96.7131 46.864C96.8252 46.9039 96.9327 46.9547 97.0337 47.0157C97.132 47.0755 97.2253 47.1425 97.3127 47.2159L97.1588 47.4525C97.1468 47.4741 97.1288 47.4923 97.1068 47.5051C97.0848 47.5179 97.0596 47.5249 97.0337 47.5253C96.9983 47.5242 96.9638 47.5137 96.9343 47.495C96.8862 47.4707 96.8349 47.4404 96.7772 47.404C96.709 47.3635 96.6371 47.329 96.5623 47.3008C96.4667 47.2646 96.368 47.2361 96.2673 47.2159C96.133 47.1925 95.9966 47.1813 95.86 47.1825C95.6484 47.1803 95.4384 47.2163 95.2411 47.2887C95.0626 47.3564 94.9018 47.4599 94.7697 47.592C94.6368 47.7297 94.5352 47.8918 94.4714 48.0683C94.3282 48.4832 94.3282 48.9304 94.4714 49.3453C94.5416 49.5255 94.6508 49.6898 94.7921 49.8276C94.9236 49.9591 95.0833 50.0625 95.2603 50.131C95.4642 50.1972 95.6804 50.223 95.8953 50.2068Z" fill="#AFB1B8"/>
<path d="M101.007 50.146H102.758V50.5828H100.472V46.7522H101.02L101.007 50.146Z" fill="#AFB1B8"/>
<path d="M104.58 50.5828H104.032V46.7522H104.58V50.5828Z" fill="#AFB1B8"/>
<path d="M106.619 46.7702C106.652 46.7878 106.68 46.8115 106.703 46.8399L109.047 49.7276C109.044 49.6822 109.044 49.6366 109.047 49.5911C109.047 49.5487 109.047 49.5062 109.047 49.4668V46.7368H109.525V50.583H109.249C109.208 50.5862 109.167 50.5788 109.13 50.5618C109.097 50.5427 109.068 50.518 109.044 50.489L106.703 47.6043C106.703 47.6498 106.703 47.6923 106.703 47.7348C106.703 47.7772 106.703 47.8167 106.703 47.8531V50.583H106.244V46.752H106.53C106.561 46.752 106.591 46.7582 106.619 46.7702Z" fill="#AFB1B8"/>
<path d="M113.562 46.7522V47.1738H111.619V48.4385H113.194V48.8449H111.619V50.1521H113.562V50.5737H111.055V46.7522H113.562Z" fill="#AFB1B8"/>
<path d="M56.0974 23.0951L80.4478 29.6342V52.5484L56.0974 46.0123V23.0951ZM54.5356 21.1418V47.1254L82.0063 54.5046V28.5241L54.5356 21.1418Z" fill="#AFB1B8"/>
<path d="M69.2587 66.5667L41.7852 59.1813V33.2004L69.2587 40.5828V66.5667Z" fill="#AFB1B8"/>
<path d="M54.9913 22.8009L79.0239 29.258L68.8035 38.927L44.7676 32.4669L54.9913 22.8009ZM54.5359 21.1418L41.7852 33.2008L69.2588 40.583L82.0063 28.524L54.5359 21.1418Z" fill="#AFB1B8"/>
<path d="M70.8047 65.105L82.0065 54.5078L70.8047 51.4961V65.105Z" fill="#AFB1B8"/>
</svg>
