<svg width="170" height="90" viewBox="0 0 170 90" fill="none" xmlns="http://www.w3.org/2000/svg">
<rect x="0.5" y="0.5" width="169" height="89" rx="3.5" stroke="#AFB1B8"/>
<path d="M71.7743 64.9216C71.7893 64.9219 71.8041 64.9252 71.8178 64.9311C71.8315 64.937 71.8438 64.9454 71.854 64.9559L72.0599 65.1715C71.9001 65.346 71.7026 65.4855 71.4808 65.5806C71.2212 65.6844 70.9413 65.7345 70.6598 65.7277C70.3953 65.7328 70.1325 65.6861 69.8877 65.5904C69.6669 65.5026 69.4686 65.3705 69.306 65.2033C69.1402 65.0299 69.0124 64.8266 68.9303 64.6055C68.8403 64.359 68.7959 64.0995 68.799 63.8386C68.7954 63.576 68.8434 63.315 68.9406 63.0692C69.0305 62.8467 69.1661 62.6435 69.3395 62.4714C69.5153 62.3027 69.7255 62.1701 69.9572 62.0818C70.2107 61.9883 70.4806 61.9417 70.7525 61.9446C71.005 61.9388 71.2562 61.9813 71.4911 62.0696C71.695 62.1538 71.8821 62.2706 72.0445 62.4151L71.8721 62.6454C71.8601 62.6616 71.8453 62.6757 71.8283 62.687C71.808 62.7003 71.7834 62.7064 71.7588 62.7042C71.7321 62.7024 71.7063 62.694 71.6842 62.6797L71.5915 62.6184L71.4628 62.54C71.4073 62.5109 71.3497 62.4855 71.2904 62.4641C71.2141 62.438 71.1358 62.4176 71.0562 62.4028C70.9552 62.3851 70.8526 62.3769 70.7499 62.3783C70.5541 62.376 70.3599 62.411 70.1785 62.4812C70.0094 62.5463 69.8568 62.6448 69.7307 62.7703C69.6024 62.9038 69.5035 63.0604 69.4399 63.2309C69.3674 63.426 69.3317 63.6317 69.3344 63.8386C69.3313 64.0487 69.367 64.2577 69.4399 64.456C69.5027 64.6251 69.5997 64.7808 69.7256 64.9142C69.8434 65.0386 69.9896 65.1358 70.1528 65.1984C70.3208 65.2647 70.5011 65.2981 70.683 65.2964C70.788 65.298 70.893 65.2914 70.997 65.2768C71.1667 65.2571 71.3295 65.201 71.4731 65.1127C71.5452 65.0674 71.6132 65.0166 71.6765 64.9608C71.7029 64.9367 71.7377 64.9228 71.7743 64.9216Z" fill="#AFB1B8"/>
<path d="M77.7197 63.8382C77.7229 64.0981 77.6758 64.3564 77.5807 64.6001C77.4968 64.8211 77.3647 65.0228 77.193 65.1917C77.0213 65.3606 76.814 65.493 76.5847 65.5801C76.0808 65.763 75.5237 65.763 75.0198 65.5801C74.792 65.4916 74.586 65.359 74.415 65.1905C74.2434 65.0185 74.1104 64.8152 74.0238 64.5927C73.8384 64.0993 73.8384 63.5599 74.0238 63.0664C74.1116 62.8439 74.2445 62.6399 74.415 62.4662C74.5875 62.303 74.7933 62.1754 75.0198 62.0913C75.5231 61.9051 76.0814 61.9051 76.5847 62.0913C76.8133 62.1797 77.0201 62.3124 77.1921 62.4809C77.3615 62.6512 77.4936 62.8519 77.5807 63.0713C77.6761 63.3166 77.7232 63.5766 77.7197 63.8382ZM77.1792 63.8382C77.1832 63.6302 77.1502 63.4231 77.0814 63.2257C77.0237 63.0565 76.93 62.9006 76.806 62.7675C76.6853 62.6416 76.5368 62.5429 76.371 62.4784C76.0049 62.3445 75.5996 62.3445 75.2335 62.4784C75.0677 62.5429 74.9192 62.6416 74.7985 62.7675C74.6728 62.8998 74.5781 63.0559 74.5205 63.2257C74.3896 63.6245 74.3896 64.0518 74.5205 64.4506C74.5786 64.6201 74.6733 64.7762 74.7985 64.9088C74.9193 65.0339 75.0679 65.1318 75.2335 65.1954C75.6003 65.326 76.0043 65.326 76.371 65.1954C76.5366 65.1318 76.6852 65.0339 76.806 64.9088C76.9294 64.7754 77.0231 64.6195 77.0814 64.4506C77.1505 64.2533 77.1835 64.0461 77.1792 63.8382Z" fill="#AFB1B8"/>
<path d="M81.7761 64.4804L81.8301 64.6176C81.8507 64.5686 81.8687 64.5245 81.8893 64.4804C81.9089 64.4343 81.9313 64.3894 81.9562 64.3457L83.2714 62.0701C83.2971 62.0309 83.3203 62.0064 83.346 61.9991C83.381 61.9889 83.4176 61.9848 83.4541 61.9868H83.8428V65.688H83.3821V62.9666C83.3821 62.9323 83.3821 62.8931 83.3821 62.8515C83.3796 62.8091 83.3796 62.7665 83.3821 62.7241L82.0592 65.0315C82.0424 65.0661 82.0155 65.0953 81.9817 65.1157C81.948 65.1361 81.9087 65.1469 81.8687 65.1467H81.7941C81.754 65.1472 81.7146 65.1366 81.6808 65.1161C81.647 65.0957 81.6202 65.0663 81.6036 65.0315L80.2421 62.7094C80.2421 62.7535 80.2421 62.7976 80.2421 62.8417C80.2421 62.8858 80.2421 62.925 80.2421 62.9593V65.6806H79.7969V61.9868H80.1855C80.222 61.9848 80.2586 61.9889 80.2936 61.9991C80.3255 62.0141 80.351 62.0392 80.3657 62.0701L81.7092 64.3481C81.7356 64.3902 81.7579 64.4345 81.7761 64.4804Z" fill="#AFB1B8"/>
<path d="M86.7252 64.2965V65.6829H86.2104V61.9867H87.3583C87.575 61.9827 87.7911 62.01 87.9992 62.0675C88.1658 62.1125 88.3203 62.191 88.4522 62.2978C88.5665 62.3979 88.6546 62.522 88.7095 62.6603C88.7703 62.8111 88.8 62.9716 88.797 63.133C88.7993 63.2951 88.7669 63.456 88.7018 63.6058C88.6399 63.7476 88.5449 63.8741 88.4239 63.9756C88.2918 64.0869 88.1366 64.1703 87.9683 64.2206C87.7679 64.2815 87.5583 64.3105 87.348 64.3063L86.7252 64.2965ZM86.7252 63.8997H87.348C87.4833 63.9014 87.618 63.8823 87.747 63.8434C87.8533 63.8093 87.9514 63.7551 88.0352 63.6841C88.1125 63.6164 88.1724 63.5326 88.2102 63.4392C88.2524 63.3405 88.2734 63.2347 88.272 63.1281C88.278 63.0254 88.2604 62.9226 88.2204 62.827C88.1804 62.7314 88.1189 62.6453 88.0404 62.5746C87.8437 62.4284 87.5968 62.3577 87.348 62.3762H86.7252V63.8997Z" fill="#AFB1B8"/>
<path d="M93.6434 65.6879H93.2367C93.1959 65.6894 93.1559 65.6772 93.1235 65.6536C93.0943 65.6305 93.0713 65.6011 93.0566 65.5678L92.7065 64.6737H90.9487L90.5858 65.5678C90.5725 65.6005 90.5503 65.6293 90.5215 65.6511C90.4888 65.6762 90.4477 65.6892 90.4057 65.6879H89.999L91.5432 61.9863H92.0786L93.6434 65.6879ZM91.0954 64.3136H92.547L91.9344 62.807C91.8876 62.6937 91.8489 62.5774 91.8186 62.4591L91.7594 62.6527C91.7414 62.7114 91.7208 62.7653 91.7028 62.8094L91.0954 64.3136Z" fill="#AFB1B8"/>
<path d="M95.8674 62.0036C95.8982 62.0196 95.9246 62.0423 95.9446 62.0697L98.1967 64.8599C98.1967 64.8158 98.1967 64.7717 98.1967 64.7301C98.1967 64.6884 98.1967 64.6468 98.1967 64.6076V61.9864H98.6574V65.6879H98.4C98.3635 65.689 98.3272 65.6814 98.2945 65.6658C98.2627 65.6482 98.2347 65.6249 98.2121 65.5973L95.9627 62.8095C95.9651 62.8519 95.9651 62.8945 95.9627 62.9369C95.9627 62.9785 95.9627 63.0153 95.9627 63.0496V65.6879H95.502V61.9864H95.7748C95.8066 61.9856 95.8382 61.9914 95.8674 62.0036Z" fill="#AFB1B8"/>
<path d="M102.451 64.2156V65.6855H101.936V64.2156L100.513 61.9863H100.973C101.013 61.984 101.052 61.9953 101.084 62.0181C101.112 62.0419 101.136 62.0701 101.154 62.1014L102.044 63.5395C102.08 63.6007 102.111 63.6571 102.137 63.711C102.162 63.7649 102.183 63.8163 102.201 63.8678L102.268 63.7085C102.293 63.6503 102.322 63.5938 102.356 63.5395L103.233 62.0916C103.252 62.0627 103.274 62.0363 103.3 62.0132C103.331 61.9878 103.37 61.9747 103.411 61.9765H103.877L102.451 64.2156Z" fill="#AFB1B8"/>
<path d="M81.521 55.7744C81.7449 55.8014 81.9714 55.8234 82.2005 55.843C85.6733 54.3643 88.6111 51.9442 90.6468 48.8851C92.6825 45.826 93.7257 42.2636 93.646 38.6433L89.8188 35.0005C90.597 38.855 90.233 42.8396 88.7675 46.5084C87.3021 50.1772 84.793 53.3856 81.521 55.7744Z" fill="#AFB1B8"/>
<path d="M80.1543 55.6049L80.2572 55.6245C83.7537 53.2441 86.4194 49.9201 87.9097 46.0823C89.4 42.2444 89.6463 38.0693 88.6168 34.0968L83.1656 28.9084C85.3705 33.1732 86.258 37.9461 85.7249 42.672C85.1918 47.398 83.2601 51.8828 80.1543 55.6049Z" fill="#AFB1B8"/>
<path d="M98.6418 42.9207C97.7157 46.8985 95.4664 50.4861 92.228 53.1507C91.2822 53.9331 90.262 54.6302 89.1807 55.2329C91.8177 54.4952 94.2415 53.1909 96.2651 51.4206C98.2888 49.6504 99.8583 47.4614 100.853 45.0225L98.6418 42.9207Z" fill="#AFB1B8"/>
<path d="M97.7743 42.3349L94.6266 39.3389C94.5664 42.7547 93.5462 46.0928 91.6719 49.0063C89.7977 51.9198 87.1378 54.3023 83.9688 55.9062H83.9842C84.6904 55.906 85.396 55.8659 86.0972 55.7862C89.0589 54.6357 91.6752 52.8051 93.7127 50.458C95.7502 48.1109 97.1456 45.3202 97.7743 42.3349Z" fill="#AFB1B8"/>
<path d="M80.61 26.7202L76.8549 23.1411C73.4979 24.3758 70.6108 26.5464 68.5714 29.3687C66.532 32.1911 65.4353 35.5337 65.4248 38.9591V38.9591C65.4374 42.7441 66.7758 46.417 69.2283 49.3965C71.6808 52.376 75.1073 54.4918 78.9653 55.4092C82.4094 51.4153 84.4258 46.4802 84.7216 41.3209C85.0174 36.1617 83.5771 31.047 80.61 26.7202Z" fill="#AFB1B8"/>
<path d="M106.45 41.7839C106.437 37.2932 104.557 32.9901 101.22 29.8147C97.8842 26.6393 93.3632 24.8496 88.6452 24.8367C86.465 24.8345 84.3034 25.2175 82.27 25.966L105.261 47.8494C106.049 45.915 106.452 43.8583 106.45 41.7839Z" fill="#AFB1B8"/>
</svg>
