<svg width="170" height="90" viewBox="0 0 170 90" fill="none" xmlns="http://www.w3.org/2000/svg">
<rect x="0.5" y="0.5" width="169" height="89" rx="3.5" stroke="#2196F3"/>
<path d="M57.9476 35.9675H57.9449C55.6813 35.9675 53.8462 37.754 53.8462 39.9578V39.9604C53.8462 42.1642 55.6813 43.9507 57.9449 43.9507H57.9476C60.2113 43.9507 62.0464 42.1642 62.0464 39.9604V39.9578C62.0464 37.754 60.2113 35.9675 57.9476 35.9675Z" fill="#2196F3"/>
<path d="M88.201 34.6916C88.1946 31.6306 86.9429 28.6967 84.7199 26.532C82.4969 24.3673 79.4837 23.1481 76.3395 23.1411V23.1411C73.1945 23.1467 70.1798 24.3653 67.9556 26.5302C65.7315 28.695 64.4791 31.6297 64.4727 34.6916V51.5715C64.4727 51.5715 88.1983 48.9989 88.201 34.6943V34.6916Z" fill="#2196F3"/>
<path d="M45.5376 57.1119C45.5433 59.2418 46.4147 61.2829 47.9614 62.7893C49.5081 64.2956 51.6043 65.1446 53.792 65.1509C55.9792 65.1446 58.075 64.2959 59.6216 62.7902C61.1683 61.2844 62.04 59.244 62.0464 57.1145V45.3691C62.0464 45.3691 45.5376 47.1605 45.5376 57.1119ZM53.792 59.2164C53.3645 59.2164 52.9466 59.0929 52.5911 58.8617C52.2356 58.6305 51.9586 58.3018 51.795 57.9172C51.6314 57.5327 51.5886 57.1096 51.672 56.7014C51.7554 56.2931 51.9613 55.9182 52.2636 55.6239C52.5658 55.3295 52.951 55.1291 53.3703 55.0479C53.7896 54.9667 54.2242 55.0084 54.6192 55.1677C55.0142 55.3269 55.3517 55.5967 55.5892 55.9428C55.8268 56.2888 55.9535 56.6957 55.9535 57.1119C55.9546 57.3889 55.8995 57.6634 55.7913 57.9197C55.6832 58.1759 55.5241 58.4088 55.3233 58.6051C55.1225 58.8013 54.8838 58.9571 54.6211 59.0633C54.3583 59.1696 54.0765 59.2243 53.792 59.2242V59.2164Z" fill="#2196F3"/>
<path d="M70.6406 57.9121H68.9531V59.6553H68.0742V55.3896H70.8516V56.1016H68.9531V57.2031H70.6406V57.9121ZM74.8652 57.6191C74.8652 58.0391 74.791 58.4072 74.6426 58.7236C74.4941 59.04 74.2812 59.2842 74.0039 59.4561C73.7285 59.6279 73.4121 59.7139 73.0547 59.7139C72.7012 59.7139 72.3857 59.6289 72.1084 59.459C71.8311 59.2891 71.6162 59.0469 71.4639 58.7324C71.3115 58.416 71.2344 58.0527 71.2324 57.6426V57.4316C71.2324 57.0117 71.3076 56.6426 71.458 56.3242C71.6104 56.0039 71.8242 55.7588 72.0996 55.5889C72.377 55.417 72.6934 55.3311 73.0488 55.3311C73.4043 55.3311 73.7197 55.417 73.9951 55.5889C74.2725 55.7588 74.4863 56.0039 74.6367 56.3242C74.7891 56.6426 74.8652 57.0107 74.8652 57.4287V57.6191ZM73.9746 57.4258C73.9746 56.9785 73.8945 56.6387 73.7344 56.4062C73.5742 56.1738 73.3457 56.0576 73.0488 56.0576C72.7539 56.0576 72.5264 56.1729 72.3662 56.4033C72.2061 56.6318 72.125 56.9678 72.123 57.4111V57.6191C72.123 58.0547 72.2031 58.3926 72.3633 58.6328C72.5234 58.873 72.7539 58.9932 73.0547 58.9932C73.3496 58.9932 73.5762 58.8779 73.7344 58.6475C73.8926 58.415 73.9727 58.0771 73.9746 57.6338V57.4258ZM77.7158 58.5361C77.7158 58.3701 77.6572 58.2432 77.54 58.1553C77.4229 58.0654 77.2119 57.9717 76.9072 57.874C76.6025 57.7744 76.3613 57.6768 76.1836 57.5811C75.6992 57.3193 75.457 56.9668 75.457 56.5234C75.457 56.293 75.5215 56.0879 75.6504 55.9082C75.7812 55.7266 75.9678 55.585 76.21 55.4834C76.4541 55.3818 76.7275 55.3311 77.0303 55.3311C77.335 55.3311 77.6064 55.3867 77.8447 55.498C78.083 55.6074 78.2676 55.7627 78.3984 55.9639C78.5312 56.165 78.5977 56.3936 78.5977 56.6494H77.7188C77.7188 56.4541 77.6572 56.3027 77.5342 56.1953C77.4111 56.0859 77.2383 56.0312 77.0156 56.0312C76.8008 56.0312 76.6338 56.0771 76.5146 56.1689C76.3955 56.2588 76.3359 56.3779 76.3359 56.5264C76.3359 56.665 76.4053 56.7812 76.5439 56.875C76.6846 56.9688 76.8906 57.0566 77.1621 57.1387C77.6621 57.2891 78.0264 57.4756 78.2549 57.6982C78.4834 57.9209 78.5977 58.1982 78.5977 58.5303C78.5977 58.8994 78.458 59.1895 78.1787 59.4004C77.8994 59.6094 77.5234 59.7139 77.0508 59.7139C76.7227 59.7139 76.4238 59.6543 76.1543 59.5352C75.8848 59.4141 75.6787 59.249 75.5361 59.04C75.3955 58.8311 75.3252 58.5889 75.3252 58.3135H76.207C76.207 58.7842 76.4883 59.0195 77.0508 59.0195C77.2598 59.0195 77.4229 58.9775 77.54 58.8936C77.6572 58.8076 77.7158 58.6885 77.7158 58.5361ZM82.4062 56.1016H81.0996V59.6553H80.2207V56.1016H78.9316V55.3896H82.4062V56.1016ZM85.4766 57.8066H83.7891V58.9492H85.7695V59.6553H82.9102V55.3896H85.7637V56.1016H83.7891V57.1182H85.4766V57.8066ZM87.8643 58.0938H87.1641V59.6553H86.2852V55.3896H87.8701C88.374 55.3896 88.7627 55.502 89.0361 55.7266C89.3096 55.9512 89.4463 56.2686 89.4463 56.6787C89.4463 56.9697 89.3828 57.2129 89.2559 57.4082C89.1309 57.6016 88.9404 57.7559 88.6846 57.8711L89.6074 59.6143V59.6553H88.6641L87.8643 58.0938ZM87.1641 57.3818H87.873C88.0938 57.3818 88.2646 57.3262 88.3857 57.2148C88.5068 57.1016 88.5674 56.9463 88.5674 56.749C88.5674 56.5479 88.5098 56.3896 88.3945 56.2744C88.2812 56.1592 88.1064 56.1016 87.8701 56.1016H87.1641V57.3818ZM92.4902 58.1523V59.6553H91.6113V55.3896H93.2754C93.5957 55.3896 93.877 55.4482 94.1191 55.5654C94.3633 55.6826 94.5508 55.8496 94.6816 56.0664C94.8125 56.2812 94.8779 56.5264 94.8779 56.8018C94.8779 57.2197 94.7344 57.5498 94.4473 57.792C94.1621 58.0322 93.7666 58.1523 93.2607 58.1523H92.4902ZM92.4902 57.4404H93.2754C93.5078 57.4404 93.6846 57.3857 93.8057 57.2764C93.9287 57.167 93.9902 57.0107 93.9902 56.8076C93.9902 56.5986 93.9287 56.4297 93.8057 56.3008C93.6826 56.1719 93.5127 56.1055 93.2959 56.1016H92.4902V57.4404ZM98.0508 57.8066H96.3633V58.9492H98.3438V59.6553H95.4844V55.3896H98.3379V56.1016H96.3633V57.1182H98.0508V57.8066ZM102.129 56.1016H100.822V59.6553H99.9434V56.1016H98.6543V55.3896H102.129V56.1016ZM105.199 57.8066H103.512V58.9492H105.492V59.6553H102.633V55.3896H105.486V56.1016H103.512V57.1182H105.199V57.8066ZM107.587 58.0938H106.887V59.6553H106.008V55.3896H107.593C108.097 55.3896 108.485 55.502 108.759 55.7266C109.032 55.9512 109.169 56.2686 109.169 56.6787C109.169 56.9697 109.105 57.2129 108.979 57.4082C108.854 57.6016 108.663 57.7559 108.407 57.8711L109.33 59.6143V59.6553H108.387L107.587 58.0938ZM106.887 57.3818H107.596C107.816 57.3818 107.987 57.3262 108.108 57.2148C108.229 57.1016 108.29 56.9463 108.29 56.749C108.29 56.5479 108.232 56.3896 108.117 56.2744C108.004 56.1592 107.829 56.1016 107.593 56.1016H106.887V57.3818ZM112.052 58.5361C112.052 58.3701 111.993 58.2432 111.876 58.1553C111.759 58.0654 111.548 57.9717 111.243 57.874C110.938 57.7744 110.697 57.6768 110.52 57.5811C110.035 57.3193 109.793 56.9668 109.793 56.5234C109.793 56.293 109.857 56.0879 109.986 55.9082C110.117 55.7266 110.304 55.585 110.546 55.4834C110.79 55.3818 111.063 55.3311 111.366 55.3311C111.671 55.3311 111.942 55.3867 112.181 55.498C112.419 55.6074 112.604 55.7627 112.734 55.9639C112.867 56.165 112.934 56.3936 112.934 56.6494H112.055C112.055 56.4541 111.993 56.3027 111.87 56.1953C111.747 56.0859 111.574 56.0312 111.352 56.0312C111.137 56.0312 110.97 56.0771 110.851 56.1689C110.731 56.2588 110.672 56.3779 110.672 56.5264C110.672 56.665 110.741 56.7812 110.88 56.875C111.021 56.9688 111.227 57.0566 111.498 57.1387C111.998 57.2891 112.362 57.4756 112.591 57.6982C112.819 57.9209 112.934 58.1982 112.934 58.5303C112.934 58.8994 112.794 59.1895 112.515 59.4004C112.235 59.6094 111.859 59.7139 111.387 59.7139C111.059 59.7139 110.76 59.6543 110.49 59.5352C110.221 59.4141 110.015 59.249 109.872 59.04C109.731 58.8311 109.661 58.5889 109.661 58.3135H110.543C110.543 58.7842 110.824 59.0195 111.387 59.0195C111.596 59.0195 111.759 58.9775 111.876 58.8936C111.993 58.8076 112.052 58.6885 112.052 58.5361Z" fill="#2196F3"/>
</svg>
