<svg width="170" height="90" viewBox="0 0 170 90" fill="none" xmlns="http://www.w3.org/2000/svg">
<rect x="0.5" y="0.5" width="169" height="89" rx="3.5" stroke="#AFB1B8"/>
<path d="M69.1777 19.1426L76.4899 26.0582H96.8874V45.3495L104.2 52.2651V19.1426H69.1777Z" fill="#AFB1B8"/>
<path d="M63.1738 25.7668V57.9431H97.195V45.1533L76.7054 25.7748L63.1738 25.7668ZM90.7141 53.2365H68.5573V31.5963H70.1235V51.7712H90.7141V53.2365Z" fill="#AFB1B8"/>
<path d="M72.9702 63.9121L73.7881 62.2275H74.4717L73.2803 64.4736V65.7822H72.6602V64.4736L71.4663 62.2275H72.1523L72.9702 63.9121ZM76.481 64.9546H75.104L74.8159 65.7822H74.1738L75.5166 62.2275H76.0708L77.416 65.7822H76.7715L76.481 64.9546ZM75.2773 64.4565H76.3076L75.7925 62.9819L75.2773 64.4565ZM78.915 64.8228C78.915 64.6584 78.9598 64.5078 79.0493 64.3711C79.1388 64.2327 79.3154 64.0692 79.5791 63.8804C79.4408 63.7062 79.3439 63.5581 79.2886 63.436C79.2349 63.314 79.208 63.196 79.208 63.082C79.208 62.8037 79.2926 62.584 79.4619 62.4229C79.6312 62.2601 79.859 62.1787 80.1455 62.1787C80.4043 62.1787 80.6159 62.2552 80.7803 62.4082C80.9463 62.5596 81.0293 62.7476 81.0293 62.9722C81.0293 63.1203 80.9919 63.257 80.917 63.3823C80.8421 63.506 80.7192 63.6297 80.5483 63.7534L80.3066 63.9292L80.9927 64.7397C81.092 64.5444 81.1416 64.3271 81.1416 64.0879H81.6567C81.6567 64.5257 81.5542 64.8846 81.3491 65.1646L81.8716 65.7822H81.1831L80.9829 65.5454C80.729 65.7358 80.4263 65.8311 80.0747 65.8311C79.7231 65.8311 79.4416 65.7383 79.23 65.5527C79.02 65.3656 78.915 65.1222 78.915 64.8228ZM80.0918 65.3574C80.292 65.3574 80.4792 65.2907 80.6533 65.1572L79.877 64.2417L79.8013 64.2954C79.606 64.4435 79.5083 64.6128 79.5083 64.8032C79.5083 64.9676 79.5612 65.1011 79.667 65.2036C79.7728 65.3062 79.9144 65.3574 80.0918 65.3574ZM79.7646 63.0674C79.7646 63.2041 79.8485 63.3758 80.0161 63.5825L80.2871 63.397L80.3628 63.3359C80.4637 63.2464 80.5142 63.1317 80.5142 62.9917C80.5142 62.8989 80.4792 62.82 80.4092 62.7549C80.3392 62.6882 80.2505 62.6548 80.1431 62.6548C80.0275 62.6548 79.9355 62.6938 79.8672 62.772C79.7988 62.8501 79.7646 62.9486 79.7646 63.0674ZM86.2222 64.625C86.1864 65.0042 86.0464 65.3005 85.8022 65.5137C85.5581 65.7253 85.2334 65.8311 84.8281 65.8311C84.5449 65.8311 84.2951 65.7643 84.0786 65.6309C83.8638 65.4958 83.6978 65.3045 83.5806 65.0571C83.4634 64.8097 83.4023 64.5225 83.3975 64.1953V63.8633C83.3975 63.528 83.4569 63.2326 83.5757 62.9771C83.6945 62.7215 83.8646 62.5246 84.0859 62.3862C84.3089 62.2479 84.5661 62.1787 84.8574 62.1787C85.2497 62.1787 85.5654 62.2853 85.8047 62.4985C86.0439 62.7118 86.1831 63.0129 86.2222 63.4019H85.6069C85.5776 63.1463 85.5028 62.9624 85.3823 62.8501C85.2635 62.7362 85.0885 62.6792 84.8574 62.6792C84.5889 62.6792 84.3822 62.7777 84.2373 62.9746C84.0941 63.1699 84.0208 63.4572 84.0176 63.8364V64.1514C84.0176 64.5355 84.0859 64.8285 84.2227 65.0303C84.361 65.2321 84.5628 65.333 84.8281 65.333C85.0706 65.333 85.2529 65.2785 85.375 65.1694C85.4971 65.0604 85.5744 64.8789 85.6069 64.625H86.2222ZM89.6133 64.0977C89.6133 64.446 89.5531 64.752 89.4326 65.0156C89.3122 65.2777 89.1396 65.4795 88.915 65.6211C88.6921 65.7611 88.4349 65.8311 88.1436 65.8311C87.8555 65.8311 87.5983 65.7611 87.3721 65.6211C87.1475 65.4795 86.9733 65.2785 86.8496 65.0181C86.7275 64.7576 86.6657 64.4574 86.6641 64.1172V63.917C86.6641 63.5703 86.7251 63.2643 86.8472 62.999C86.9709 62.7337 87.1442 62.5311 87.3672 62.3911C87.5918 62.2495 87.849 62.1787 88.1387 62.1787C88.4284 62.1787 88.6847 62.2487 88.9077 62.3887C89.1323 62.527 89.3057 62.7272 89.4277 62.9893C89.5498 63.2497 89.6117 63.5532 89.6133 63.8999V64.0977ZM88.9956 63.9121C88.9956 63.5182 88.9207 63.2163 88.771 63.0063C88.6229 62.7964 88.4121 62.6914 88.1387 62.6914C87.8717 62.6914 87.6626 62.7964 87.5112 63.0063C87.3615 63.2147 87.285 63.5101 87.2817 63.8926V64.0977C87.2817 64.4883 87.3574 64.7902 87.5088 65.0034C87.6618 65.2166 87.8734 65.3232 88.1436 65.3232C88.417 65.3232 88.627 65.2191 88.7734 65.0107C88.9215 64.8024 88.9956 64.498 88.9956 64.0977V63.9121Z" fill="#AFB1B8"/>
</svg>
